<svg xmlns="http://www.w3.org/2000/svg" viewBox="0 0 48 48">
  <rect width="48" height="48" rx="14" fill="#25d366"/>
  <path fill="#fff" d="M24.1 9.2c-8 0-14.5 6.5-14.5 14.5 0 2.5.7 5 1.9 7.2L9.5 38.8l8-2.1c2 1.1 4.3 1.7 6.6 1.7 8 0 14.5-6.5 14.5-14.5S32.1 9.2 24.1 9.2Zm0 26.7c-2.1 0-4.1-.6-5.9-1.6l-.4-.3-4.7 1.2 1.3-4.6-.3-.5c-1.2-1.9-1.8-4.1-1.8-6.4 0-6.7 5.4-12.1 12.1-12.1 3.2 0 6.3 1.3 8.6 3.5 2.3 2.3 3.5 5.3 3.5 8.6-.1 6.8-5.6 12.2-12.4 12.2Zm6.6-9.1c-.4-.2-2.2-1.1-2.5-1.2-.3-.1-.6-.2-.8.2-.2.4-.9 1.2-1.1 1.4-.2.2-.4.3-.8.1-.4-.2-1.5-.6-2.9-1.8-1.1-1-1.8-2.1-2-2.5-.2-.4 0-.6.2-.8.2-.2.4-.4.5-.6.2-.2.2-.4.4-.6.1-.2.1-.5 0-.7-.1-.2-.8-1.9-1.1-2.6-.3-.7-.6-.6-.8-.6h-.7c-.2 0-.6.1-.9.4-.3.4-1.3 1.3-1.3 3.1s1.3 3.6 1.5 3.8c.2.2 2.6 4 6.3 5.6.9.4 1.5.6 2.1.8.9.3 1.7.2 2.3.1.7-.1 2.2-.9 2.5-1.8.3-.9.3-1.6.2-1.8-.2-.2-.5-.3-.8-.5Z"/>
</svg>
