<svg xmlns="http://www.w3.org/2000/svg" viewBox="0 0 820 360" role="img" aria-labelledby="title desc">
  <title id="title">Snow Feather logo</title>
  <desc id="desc">Blue mountain peaks above a light blue feather.</desc>
  <defs>
    <linearGradient id="mountain" x1="120" x2="590" y1="210" y2="80" gradientUnits="userSpaceOnUse">
      <stop offset="0" stop-color="#174f86"/>
      <stop offset="0.5" stop-color="#1f619d"/>
      <stop offset="1" stop-color="#103b69"/>
    </linearGradient>
    <linearGradient id="feather" x1="210" x2="740" y1="270" y2="150" gradientUnits="userSpaceOnUse">
      <stop offset="0" stop-color="#83c6f0"/>
      <stop offset="0.55" stop-color="#63afe8"/>
      <stop offset="1" stop-color="#2d87d4"/>
    </linearGradient>
  </defs>

  <path
    fill="url(#mountain)"
    d="M90 244 229 111l29 28 116-124 80 82 35-25 78 74 72 49-92-23-50-46 3 53-71-76-24-36-13 42 47 86-80-58-20 58-40-44-55 52-38-64-25 74-32-35z"
  />
  <path
    fill="url(#feather)"
    d="M172 289c96-63 174-23 282-26 38-1 65-14 88-39 48-50 110-70 192-102-27 29-55 63-81 102 50-25 88-64 116-122 18 55-10 112-68 151-46 31-99 40-157 25-48 22-96 33-147 33-70 0-134-21-225-22z"
  />
  <path
    fill="#ffffff"
    d="M492 278c66-21 126-72 187-129-30 49-83 98-158 143 55 8 101-2 139-23-42 31-91 44-147 37-34 9-72 9-111 1 34-3 64-13 90-29z"
    opacity="0.95"
  />
  <path
    fill="#ffffff"
    d="M565 242c17-26 32-56 46-89l-5 72 37-92-15 85 50-99-29 94 57-69-40 83 56-38-58 59 51-15c-52 35-106 44-150 9z"
    opacity="0.95"
  />
</svg>
